# xmcd CD database file
#
# Track frame offsets:
#	150
#	20566
#	40846
#	67611
#	90775
#	112596
#	138864
#	162216
#	180342
#	201686
#	217126
#	228387
#	248077
#	269289
#
# Disc length: 3840 seconds
#
# Revision: 0
# Processed by: cddbd v1.5.2PL0 Copyright (c) Steve Scherf et al.
# Submitted via: CDex 1.70beta2
#
DISCID=b00efe0e
DTITLE=BIOMECHANICAL - CANNIBALISED
DYEAR=2007
DGENRE=Industrial Metal
TTITLE0=FALLEN IN FEAR
TTITLE1=THE UNSEEN
TTITLE2=CANNIBALISED
TTITLE3=BREATHING SILENCE
TTITLE4=PREDATORY
TTITLE5=SLOW THE POISON
TTITLE6=CONSUMED
TTITLE7=REBORN IN DAMNATION
TTITLE8=THROUGH HATRED RISE
TTITLE9=VIOLENT DESCENT
TTITLE10=BEYOND THE DESCENT (FALLEN IN FEAR/REGENERATED)
TTITLE11=REBORN INTO DARKNESS (THROUGH HATRED ARISE)
TTITLE12=IMPERIUM (ABSOLUTION PARTS I and III)
TTITLE13=THROUGH THE REMAINS (CONSUMED)
EXTD=YEAR: 2007
EXTT0=
EXTT1=
EXTT2=
EXTT3=
EXTT4=
EXTT5=
EXTT6=
EXTT7=
EXTT8=
EXTT9=
EXTT10=
EXTT11=
EXTT12=
EXTT13=
PLAYORDER=
